<?xml version="1.0" standalone="no"?>
<!DOCTYPE svg PUBLIC "-//W3C//DTD SVG 20010904//EN"
 "http://www.w3.org/TR/2001/REC-SVG-20010904/DTD/svg10.dtd">
<svg version="1.0" xmlns="http://www.w3.org/2000/svg"
 width="90px" height="90px" viewBox="0 0 500.000000 500.000000"
 preserveAspectRatio="xMidYMid meet">

<g transform="translate(0.000000,500.000000) scale(0.100000,-0.100000)"
fill="#000000" stroke="none">
<path d="M2372 4565 c-62 -63 -120 -128 -130 -143 -9 -16 -37 -47 -62 -68 -58
-51 -201 -196 -265 -269 -92 -105 -352 -362 -533 -527 -35 -31 -62 -64 -62
-75 0 -11 -11 -26 -25 -33 -14 -8 -57 -49 -96 -91 -82 -92 -84 -81 36 -197 41
-40 82 -87 91 -104 9 -18 44 -57 77 -87 175 -161 463 -446 705 -698 65 -68
106 -103 120 -103 14 0 27 -11 38 -32 19 -37 212 -238 228 -238 6 0 67 59 136
130 172 179 332 340 788 794 216 214 392 393 392 398 0 15 -26 8 -61 -17 -18
-14 -126 -114 -239 -223 -245 -236 -241 -231 -455 -456 -93 -98 -177 -185
-185 -192 -23 -20 -81 -78 -116 -116 -17 -18 -55 -53 -84 -77 -28 -24 -55 -52
-58 -62 -4 -9 -34 -37 -67 -62 l-60 -45 -30 36 c-16 20 -38 44 -48 52 -10 8
-80 78 -155 154 -253 258 -373 376 -392 386 -11 6 -20 15 -20 19 0 9 -83 94
-236 242 -49 47 -136 134 -194 193 -58 59 -133 131 -167 159 -66 55 -74 70
-45 86 10 5 39 37 66 70 27 33 64 69 82 80 18 11 56 51 84 90 32 44 59 71 70
71 10 0 20 4 22 10 2 5 60 68 131 139 85 87 127 136 127 151 0 18 4 21 23 17
17 -4 29 3 52 32 17 21 49 53 73 71 24 18 52 51 63 72 11 21 30 43 43 48 15 5
29 26 43 61 11 29 26 55 33 57 9 3 11 -2 7 -17 -4 -11 -10 -31 -13 -42 -6 -19
-5 -20 14 -10 11 6 23 24 27 41 4 17 18 38 32 48 14 9 47 37 74 61 45 40 48
45 32 57 -17 12 -16 15 12 39 17 13 38 23 48 21 12 -3 28 11 52 42 63 86 76
102 89 102 6 0 34 -22 61 -50 27 -27 54 -50 61 -50 6 0 31 -19 55 -41 36 -34
78 -68 118 -96 2 -2 5 -12 6 -23 2 -29 63 -100 85 -100 18 0 50 -28 84 -75 7
-10 19 -16 26 -13 16 5 -55 88 -76 88 -7 0 -26 17 -41 37 -15 21 -103 114
-195 206 -93 93 -168 173 -168 178 0 20 -19 4 -128 -106z"/>
<path d="M3075 4040 c19 -21 45 -27 45 -10 0 6 -12 15 -26 20 -36 14 -39 13
-19 -10z"/>
<path d="M2426 3876 c-20 -19 -36 -43 -36 -53 0 -10 -9 -33 -20 -51 -11 -18
-20 -37 -20 -44 0 -6 -25 -60 -55 -120 -30 -60 -52 -115 -49 -122 3 -8 -8 -30
-25 -49 -18 -19 -31 -46 -31 -60 0 -17 -16 -45 -45 -77 -29 -33 -45 -60 -45
-78 0 -15 -19 -61 -41 -102 -23 -41 -55 -102 -72 -135 -16 -33 -38 -71 -47
-85 -9 -14 -15 -30 -13 -37 2 -6 -1 -14 -6 -18 -6 -3 -11 -14 -11 -23 0 -10
-9 -34 -20 -55 -11 -20 -20 -39 -20 -42 0 -5 61 -38 63 -33 1 2 17 33 36 71
48 96 69 87 24 -11 -31 -70 13 -112 52 -50 11 18 31 35 45 38 18 4 29 20 47
65 13 33 23 65 23 73 0 8 7 26 14 40 8 15 23 45 32 67 22 51 101 175 112 175
4 0 16 -17 27 -37 31 -58 200 -217 309 -291 54 -37 122 -83 152 -103 51 -35
135 -69 168 -69 11 0 16 9 16 26 0 17 6 28 20 31 47 12 7 121 -56 153 -63 32
-204 161 -204 187 0 8 -13 32 -28 52 -16 20 -41 57 -56 83 l-27 46 88 90 c48
49 115 111 147 138 63 52 108 98 157 161 16 21 43 56 59 77 37 48 38 85 5 124
-23 28 -28 29 -58 19 -17 -7 -57 -39 -87 -72 -86 -94 -296 -297 -351 -340 -15
-11 -52 -39 -82 -62 -31 -24 -81 -68 -112 -99 -31 -31 -58 -54 -61 -52 -2 3
14 41 36 84 22 43 60 122 85 174 25 52 49 102 54 110 28 46 69 140 75 172 5
27 2 45 -10 63 -17 26 -95 85 -112 85 -5 0 -26 -15 -46 -34z m-146 -476 c-6
-12 -14 -20 -17 -17 -2 3 1 14 8 26 17 26 24 19 9 -9z m331 -43 c-13 -13 -26
-3 -16 12 3 6 11 8 17 5 6 -4 6 -10 -1 -17z m-371 -37 c0 -5 -5 -10 -11 -10
-5 0 -7 5 -4 10 3 6 8 10 11 10 2 0 4 -4 4 -10z m-20 -46 c0 -17 -124 -243
-131 -238 -14 8 -10 34 5 34 9 0 12 7 9 19 -7 27 85 191 108 191 5 0 9 -3 9
-6z m340 -259 c7 -8 17 -15 23 -15 6 0 23 -12 39 -27 24 -23 28 -24 34 -10 3
10 10 17 16 17 12 0 74 -65 82 -86 9 -24 49 2 41 27 -9 26 13 24 49 -5 19 -16
27 -30 23 -40 -7 -18 -27 -22 -27 -6 0 6 -4 10 -10 10 -5 0 -7 -7 -3 -16 5
-14 2 -16 -21 -10 -25 6 -26 5 -16 -14 6 -11 17 -20 24 -20 19 0 66 -39 66
-55 0 -21 -27 -25 -70 -10 -43 15 -222 149 -279 209 -29 30 -32 38 -21 51 16
19 34 19 50 0z m70 -15 c0 -5 -4 -10 -10 -10 -5 0 -10 5 -10 10 0 6 5 10 10
10 6 0 10 -4 10 -10z"/>
<path d="M4310 1598 c-1 -2 -3 -120 -5 -263 -3 -143 -8 -293 -12 -334 l-8 -74
-54 -28 c-68 -37 -113 -38 -135 -4 -23 35 -21 107 4 136 19 23 20 23 35 5 12
-16 17 -17 30 -6 25 21 18 54 -15 73 -28 17 -32 17 -66 1 -53 -25 -79 -84 -70
-157 6 -47 13 -61 42 -87 47 -41 98 -41 171 0 30 17 58 28 63 25 5 -3 12 -25
15 -50 8 -50 36 -84 52 -63 6 7 13 49 15 93 5 78 32 170 62 211 14 18 16 18
32 2 19 -19 22 -47 11 -134 -7 -57 -6 -64 16 -90 22 -25 27 -27 50 -17 14 7
31 24 39 39 18 37 35 41 49 10 13 -27 81 -66 116 -66 41 0 97 33 154 91 56 57
70 79 51 79 -5 0 -19 -11 -32 -25 -13 -14 -28 -25 -34 -25 -6 0 -31 -16 -55
-35 -54 -43 -104 -54 -131 -30 -11 10 -20 28 -20 40 0 18 7 24 35 29 50 10
115 74 115 113 0 37 -34 83 -61 83 -61 0 -159 -104 -159 -168 0 -26 -45 -66
-66 -58 -15 6 -16 19 -12 101 5 91 4 96 -20 120 -13 14 -35 25 -47 25 -33 0
-85 -68 -85 -112 0 -30 -15 -52 -29 -44 -15 10 -14 137 4 277 24 194 23 249
-5 287 -20 27 -38 40 -40 30z m480 -524 c0 -14 -64 -80 -93 -95 -13 -7 -19 -6
-24 6 -16 43 72 140 104 113 7 -6 13 -16 13 -24z"/>
<path d="M853 1553 c-7 -3 -13 -15 -13 -28 0 -32 -84 -129 -178 -209 -42 -35
-93 -80 -111 -100 -21 -22 -44 -36 -59 -36 -23 0 -24 2 -18 53 11 89 8 224 -5
249 -27 51 -73 61 -137 29 -20 -10 -55 -24 -77 -31 -22 -7 -53 -23 -68 -36
-16 -13 -34 -24 -42 -24 -7 0 -36 -21 -64 -46 -47 -42 -52 -51 -49 -83 5 -60
28 -51 133 51 109 105 188 160 225 156 43 -5 48 -35 35 -217 -7 -90 -10 -172
-8 -182 3 -10 -4 -35 -16 -54 -26 -45 -26 -65 -1 -98 24 -31 27 -113 5 -143
-8 -10 -15 -29 -15 -41 0 -26 32 -63 55 -63 13 0 15 22 15 136 0 151 10 208
46 249 13 15 24 32 24 37 0 4 9 8 19 8 24 0 50 -33 191 -245 188 -284 271
-383 392 -466 76 -52 148 -79 212 -79 50 0 57 3 99 43 49 48 96 152 77 171 -7
7 -10 3 -10 -12 0 -28 -69 -128 -98 -142 -45 -20 -105 -12 -160 23 -128 81
-300 256 -437 447 -22 30 -43 60 -47 65 -4 6 -25 33 -46 60 -21 28 -48 67 -60
88 -12 20 -31 52 -42 70 l-19 33 43 47 c23 26 47 47 53 47 5 0 17 16 26 35 9
18 29 42 44 52 15 10 54 44 86 77 55 54 58 60 47 82 -14 25 -28 33 -47 27z"/>
<path d="M3642 1548 c-7 -7 -12 -22 -12 -34 0 -41 -305 -334 -348 -334 -23 0
-24 3 -18 43 24 176 20 239 -19 281 -32 35 -64 33 -155 -7 -174 -77 -270 -147
-270 -197 0 -28 21 -55 39 -48 6 1 52 44 104 94 90 88 183 154 219 154 10 0
25 -11 34 -25 15 -23 15 -39 5 -158 -6 -73 -11 -159 -11 -192 0 -43 -6 -68
-20 -90 -25 -38 -25 -57 0 -80 26 -24 29 -129 4 -156 -13 -15 -14 -23 -4 -53
6 -20 18 -37 26 -37 8 -1 19 -2 26 -3 8 -1 12 44 15 157 3 166 6 176 56 240
l31 37 24 -22 c13 -13 77 -102 142 -199 217 -325 294 -417 415 -498 90 -61
142 -81 211 -81 52 0 57 2 102 47 35 35 53 64 66 106 10 32 16 61 12 64 -3 3
-8 -3 -11 -13 -4 -10 -10 -26 -15 -34 -5 -8 -17 -30 -26 -48 -35 -70 -115 -92
-192 -53 -122 62 -327 264 -450 443 -16 24 -61 85 -99 136 -39 51 -83 118 -98
149 -29 56 -29 56 -9 72 11 9 29 29 38 44 10 15 23 27 30 27 6 0 22 18 35 40
13 21 39 46 57 56 18 10 38 29 45 42 8 13 27 33 44 45 43 30 46 38 24 69 -23
31 -29 34 -47 16z"/>
<path d="M2314 1340 c-23 -10 -45 -23 -48 -28 -3 -6 -20 -13 -36 -17 -42 -9
-45 -21 -16 -65 14 -22 26 -46 26 -54 0 -8 -20 -38 -43 -68 -61 -74 -70 -95
-71 -159 -1 -102 70 -171 159 -155 21 4 55 26 89 56 29 28 58 50 63 50 6 0 28
-20 50 -44 68 -74 134 -71 183 9 11 18 20 35 20 39 0 13 -23 5 -54 -19 -18
-14 -40 -25 -48 -25 -19 0 -108 78 -108 94 0 7 19 42 42 77 51 79 88 157 88
186 0 45 -47 67 -86 39 -19 -14 -19 -15 5 -40 23 -24 23 -28 11 -73 -13 -48
-59 -131 -84 -152 -10 -8 -24 2 -58 46 -25 32 -52 72 -61 89 -15 28 -15 33 -1
44 35 30 74 102 76 143 3 40 2 42 -27 44 -16 1 -49 -6 -71 -17z m16 -67 c-1
-19 -41 -55 -55 -49 -22 8 -18 19 13 38 30 19 42 22 42 11z m25 -245 c54 -78
57 -84 44 -107 -21 -36 -96 -91 -126 -91 -15 0 -36 12 -54 31 -45 48 -41 103
13 185 23 35 47 64 54 64 6 0 37 -37 69 -82z"/>
<path d="M1795 1328 c-2 -7 -6 -51 -10 -98 -4 -47 -12 -88 -18 -92 -7 -4 -26
-8 -44 -8 -17 0 -35 -4 -38 -10 -3 -5 -20 -9 -38 -8 -62 2 -177 -73 -177 -116
0 -24 35 -43 88 -50 68 -9 82 -15 82 -35 0 -25 -46 -65 -66 -57 -9 3 -14 13
-10 21 8 23 -13 29 -35 9 -22 -20 -25 -66 -5 -83 25 -21 82 -2 131 43 78 73
54 123 -65 133 -33 3 -63 10 -66 15 -4 6 3 20 15 32 16 15 34 21 68 21 35 0
48 5 57 20 6 11 11 21 11 21 0 1 24 5 53 9 l53 7 -2 -129 c-3 -159 10 -193 69
-193 30 0 48 10 95 51 31 28 57 57 57 65 0 21 -13 17 -39 -10 -12 -13 -38 -32
-57 -42 l-35 -19 -25 28 c-22 25 -24 37 -24 122 0 109 6 119 77 129 83 12 104
17 101 28 -2 6 -37 11 -78 12 l-75 1 3 89 c3 66 0 91 -10 97 -19 13 -38 11
-43 -3z"/>
<path d="M3746 1225 c-26 -20 -28 -26 -16 -40 9 -11 22 -14 39 -10 36 9 44 20
37 49 -8 32 -22 32 -60 1z"/>
<path d="M3893 1238 c-26 -13 -31 -49 -8 -68 12 -10 20 -8 44 12 33 25 37 38
19 56 -14 14 -25 14 -55 0z"/>
<path d="M1079 1108 c-1 -2 -2 -42 -3 -90 -1 -75 -4 -91 -23 -109 -37 -37 -51
-20 -51 61 1 51 -3 75 -13 81 -25 16 -39 -20 -39 -102 0 -72 2 -79 26 -98 36
-28 50 -26 83 10 28 30 29 30 42 12 8 -11 27 -28 42 -38 22 -14 31 -15 40 -6
9 10 8 15 -6 23 -30 16 -47 72 -47 151 0 59 -4 77 -18 90 -17 15 -30 21 -33
15z"/>
<path d="M3873 1103 c-8 -3 -10 -24 -6 -73 7 -78 -7 -126 -39 -136 -29 -9 -38
12 -32 76 4 38 2 60 -8 72 -22 30 -35 6 -41 -80 -6 -81 -6 -84 20 -108 35 -32
57 -30 87 8 l25 32 21 -27 c29 -37 59 -52 73 -38 8 8 5 17 -11 31 -30 28 -36
53 -40 178 -2 47 -22 74 -49 65z"/>
<path d="M1232 1058 c-15 -48 -22 -197 -10 -204 14 -9 58 36 58 59 0 30 48
107 66 107 14 0 15 -11 10 -77 -7 -85 5 -125 38 -131 26 -5 42 14 27 32 -9 11
-11 38 -6 98 7 93 -2 133 -35 143 -23 7 -60 -18 -60 -41 0 -7 -9 -18 -20 -24
-17 -9 -20 -8 -20 14 0 61 -32 77 -48 24z"/>
</g>
</svg>
